<?xml version="1.0" standalone="no"?>
<!DOCTYPE svg PUBLIC "-//W3C//DTD SVG 20010904//EN"
 "http://www.w3.org/TR/2001/REC-SVG-20010904/DTD/svg10.dtd">
<svg version="1.0" xmlns="http://www.w3.org/2000/svg"
 width="305.000000pt" height="305.000000pt" viewBox="0 0 305.000000 305.000000"
 preserveAspectRatio="xMidYMid meet">

<g transform="translate(0.000000,305.000000) scale(0.100000,-0.100000)"
fill="#000000" stroke="none">
<path d="M1567 2824 c-3 -30 -20 -70 -52 -122 -27 -42 -60 -97 -74 -122 l-26
-45 -9 48 c-9 45 -26 65 -26 30 0 -22 -112 -253 -122 -253 -5 0 -8 21 -8 46 0
54 -11 51 -44 -14 -33 -66 -49 -127 -48 -194 0 -67 15 -116 54 -179 15 -25 28
-49 28 -53 0 -3 -16 -6 -35 -6 l-35 0 0 -65 0 -65 385 0 385 0 0 70 0 70 -40
0 c-33 0 -40 3 -40 20 0 11 16 43 35 71 43 62 45 106 10 168 -14 24 -25 59
-25 80 -1 49 -32 114 -85 177 -25 29 -45 57 -45 62 0 6 -20 34 -43 64 -54 65
-68 93 -96 186 -12 39 -25 72 -30 72 -5 0 -11 -21 -14 -46z m63 -199 c0 -43
-7 -74 -24 -110 l-24 -50 -1 161 c-1 88 2 164 6 168 12 12 43 -108 43 -169z
m92 -68 c42 -83 28 -215 -34 -326 -60 -110 -91 -177 -96 -214 -2 -21 -9 -40
-13 -43 -5 -3 -9 90 -9 206 l0 211 28 57 c16 31 37 85 47 120 18 61 19 62 38
45 10 -10 28 -35 39 -56z m115 -177 c26 -53 24 -150 -4 -189 -13 -16 -23 -33
-23 -36 0 -3 -22 -39 -50 -80 -27 -41 -50 -81 -50 -90 0 -11 -11 -15 -46 -15
l-46 0 7 42 c8 47 39 132 80 221 32 69 55 149 55 193 0 17 3 34 7 38 8 8 46
-37 70 -84z m-313 1 c-42 -104 -50 -159 -32 -227 8 -32 23 -76 32 -96 25 -57
5 -46 -34 19 -33 54 -35 62 -35 148 0 81 3 95 29 140 30 52 57 87 62 82 2 -2
-8 -31 -22 -66z m-160 2 c-19 -49 -25 -162 -11 -215 12 -48 -8 -31 -27 22 -21
59 -16 108 21 193 31 68 43 69 17 0z m534 -178 c24 -52 15 -91 -32 -144 -24
-27 -47 -59 -51 -70 -9 -28 -75 -31 -75 -3 0 23 31 81 76 139 20 27 41 60 46
76 12 34 21 34 36 2z"/>
<path d="M1210 2669 c-30 -10 -105 -44 -166 -74 -325 -163 -564 -497 -625
-874 -13 -85 -13 -288 1 -376 20 -129 100 -344 163 -440 166 -252 363 -411
614 -496 107 -36 123 -37 123 -5 0 19 -8 26 -47 36 -161 44 -340 148 -465 268
-154 149 -258 326 -316 541 -23 87 -26 113 -26 286 0 173 3 199 26 286 48 177
119 315 236 459 113 140 287 259 475 325 43 15 79 31 82 35 6 9 -6 50 -14 49
-3 0 -31 -9 -61 -20z"/>
<path d="M1820 2662 c0 -25 5 -30 43 -41 207 -62 399 -188 531 -350 117 -143
195 -303 237 -483 18 -75 22 -123 22 -253 0 -170 -10 -238 -59 -383 -109 -327
-404 -610 -734 -705 -77 -22 -85 -27 -88 -51 -3 -24 -1 -25 30 -20 51 9 208
64 258 90 131 67 285 192 370 299 126 160 191 290 242 488 28 111 31 136 31
277 0 136 -3 168 -27 263 -35 140 -70 236 -114 317 -56 101 -163 240 -232 300
-35 30 -73 63 -84 74 -60 54 -232 145 -353 187 -72 24 -73 24 -73 -9z"/>
<path d="M1200 1785 c0 -8 101 -139 114 -147 6 -4 115 -8 243 -8 174 0 235 3
243 13 75 91 110 136 110 141 0 3 -160 6 -355 6 -195 0 -355 -2 -355 -5z"/>
<path d="M1255 1508 c-90 -165 -111 -202 -137 -243 -14 -22 -38 -65 -53 -94
l-27 -54 43 -36 c134 -108 255 -296 308 -476 11 -38 37 -110 57 -160 21 -49
43 -117 50 -150 10 -52 12 -12 13 292 l1 352 -31 16 c-36 19 -68 83 -69 135 0
113 119 185 220 132 38 -20 80 -89 80 -132 -1 -43 -37 -108 -74 -132 l-36 -23
1 -345 c1 -247 4 -332 11 -300 5 25 19 70 30 100 11 30 27 82 35 115 31 125
56 202 89 274 40 87 157 247 210 288 20 15 47 37 60 48 l24 20 -113 210 c-62
116 -120 220 -127 233 -15 22 -16 22 -265 22 l-250 0 -50 -92z"/>
</g>
</svg>
